<svg width="1280" height="557" viewBox="0 0 1280 557" fill="none" xmlns="http://www.w3.org/2000/svg">
<g clip-path="url(#clip0_14_87)">
<rect width="1280" height="557" fill="#F4F0ED"/>
<path d="M35.3244 360.95C39.6811 372.028 51.0659 377.915 56.2137 379.474C57.9929 386.234 60.2862 398.447 55.2255 393.213C50.1648 387.979 32.9328 380.597 24.9494 377.56C-2.6891 370.154 -3.12217 395.891 6.18286 405.386C13.6269 412.982 41.9427 412.634 55.1701 411.51L48.4903 448.5C50.599 450.68 52.9481 453.572 45.4753 447.692C36.1343 440.341 -1.37426 419.519 -8.94104 441.728C-14.9945 459.496 -3.90749 469.175 4.13281 471.329C22.3988 476.223 35.6018 474.489 42.4311 471.113C40.5965 482.65 36.4392 504.732 34.4868 500.762C32.0464 495.799 17.9495 486.097 -2.65378 480.576C-19.1364 476.16 -33.4144 482.812 -32.7257 490.292C-21.1078 527.337 21.4284 519.345 25.9511 520.557C29.5693 521.526 18.1599 543.604 12.003 554.521C11.0789 551.94 5.45292 544.795 -9.6582 536.868C-28.5471 526.959 -44.5615 534.977 -45.2675 553.179C-45.8144 567.281 -15.7247 574.919 1.15173 576.928L-40.4929 651.945L-22.4287 650.861L13.2122 580.159C27.6312 600.72 45.9287 600.775 49.581 601.215C53.2333 601.655 72.204 599.198 64.6231 577.238C57.0421 555.279 14.2101 558.344 19.5407 556.541C23.8052 555.099 32.6264 533.836 36.504 523.385C74.5774 548.128 93.2622 532.668 99.9392 525.84C106.616 519.011 92.089 504.885 79.7592 502.659C69.8954 500.878 50.4929 501.998 42.0246 502.781L49.9689 473.133C53.6749 475.382 65.8985 480.417 85.1452 482.558C104.392 484.699 109.797 474.98 110.093 469.853C111.117 464.024 108.634 451.581 90.5145 448.449C72.3949 445.318 59.1659 451.54 54.8163 455.042L62.9146 408.738C91.3422 423.249 103.135 413.411 105.477 406.678C107.984 402.682 110.488 392.401 100.445 383.247C90.4024 374.093 72.3961 382.733 64.6483 388.197L62.8186 376.935C69.3995 375.826 83.2363 369.48 85.9371 352.968C89.313 332.329 72.641 318.167 56.5243 316.003C43.6309 314.271 36.5958 325.385 34.6899 331.158C29.3982 339.65 32.9081 354.558 35.3244 360.95Z" fill="#61B379"/>
<path d="M1330.25 -142.467C1325.63 -164.953 1289.84 -190.477 1274.17 -200.397C1270.05 -200.397 1257.69 -209.491 1218.12 -202.051C1186.46 -196.099 1163.16 -152.175 1155.46 -130.958C1174.42 -133.438 1218.12 -117.731 1218.12 -116.905C1218.12 -116.243 1206.57 -116.078 1200.8 -116.078C1173.1 -113.433 1148.59 -95.6869 1139.8 -87.1447C1124.63 -72.5955 1114.24 -46.3628 1110.95 -35.0651C1144.58 -35.7264 1164.53 -24.3185 1170.3 -18.5319C1166.18 -16.8786 1130.73 -14.3986 1116.72 -13.5719C1105.51 -12.9106 1100.5 -6.68306 1099.41 -3.65198C1084.9 31.3985 1095.01 89.2096 1101.88 113.734C1105.84 135.558 1123.86 169.671 1132.38 184C1135.68 180.693 1158.49 170.498 1169.48 165.814C1198.33 145.974 1194.26 136.213 1195.03 129.44C1195.87 122.064 1195.58 118.969 1196.68 117.041C1202.45 118.694 1204.1 125.307 1223.89 119.521C1243.67 113.734 1247.79 97.2007 1256.86 83.9741C1264.12 73.3928 1264.83 58.6231 1264.28 52.561C1261.81 42.641 1246.15 31.0678 1244.5 29.4145C1242.85 27.7611 1238.73 24.4545 1242.02 25.2812C1245.32 26.1078 1261.81 30.2411 1277.47 26.9345C1293.14 23.6278 1305.5 -12.7452 1306.33 -35.0651C1307.15 -57.3849 1286.54 -79.7048 1283.24 -83.0114C1280.6 -85.6567 1281.59 -87.4203 1282.42 -87.9714C1289.56 -86.0425 1306 -81.6888 1314.57 -79.7048C1325.29 -77.2248 1331.06 -81.3581 1333.53 -87.9714C1337.53 -98.6543 1336.84 -125.044 1330.25 -142.467Z" fill="#219653"/>
<path d="M1165.36 119.521C1168.65 120.347 1174.26 123.654 1170.3 130.267C1165.36 138.534 1156.29 122.827 1165.36 119.521Z" fill="#F3DEE5"/>
<path d="M1288.19 -216.93C1288.19 -214.285 1192.01 4.06364 1143.92 112.907C1139.31 118.198 1139.8 109.05 1140.62 103.814C1141.45 93.0675 1270.05 -203.704 1276.65 -214.45C1283.24 -225.197 1288.19 -220.237 1288.19 -216.93Z" fill="#F3DEE5"/>
<path d="M1306.33 -119.384C1303.03 -135.256 1283.52 -136.469 1274.17 -135.091C1271.7 -130.131 1280.77 -128.478 1291.49 -122.691C1300.06 -118.062 1304.95 -118.558 1306.33 -119.384Z" fill="#F3DEE5"/>
<path d="M1195.86 -159.064C1189.26 -157.741 1191.46 -154.655 1193.38 -153.277C1199.16 -149.144 1218.94 -149.971 1223.06 -150.797C1227.18 -151.624 1228.01 -153.277 1227.18 -157.411C1226.36 -161.544 1204.1 -160.717 1195.86 -159.064Z" fill="#F3DEE5"/>
<path d="M1249.44 -42.5049C1237.57 -47.1342 1242.3 -38.9227 1246.15 -34.2383C1249.99 -30.6561 1259.99 -22.4997 1269.23 -18.5318C1278.46 -14.5638 1276.92 -20.1851 1275 -23.4917C1271.43 -27.9006 1261.31 -37.8756 1249.44 -42.5049Z" fill="#F3DEE5"/>
<path d="M1209.05 60.8277C1199.81 54.2144 1200.25 61.3788 1201.63 65.7877C1201.63 66.6143 1204.43 71.409 1215.64 83.9742C1226.85 96.5395 1225.26 86.4542 1223.06 79.8409C1222.24 76.2587 1218.28 67.441 1209.05 60.8277Z" fill="#F3DEE5"/>
<path d="M1140.62 37.6812C1151.18 35.6972 1145.02 31.3435 1140.62 29.4146C1122.49 26.1079 1116.72 33.5479 1118.37 35.2012C1120.01 36.8545 1127.43 40.1612 1140.62 37.6812Z" fill="#F3DEE5"/>
<path d="M1156.29 -68.9581C1147.05 -66.9741 1152.44 -63.7225 1156.29 -62.3448C1168.65 -58.2115 1185.14 -62.3448 1183.49 -66.4781C1181.84 -70.6114 1167.83 -71.438 1156.29 -68.9581Z" fill="#F3DEE5"/>
<path d="M1275.76 494.488C1255.57 513.169 1256.96 583.451 1245.44 591.463C1240.49 597.888 1211.15 595.455 1195.04 595.991C1163.19 597.053 1128.82 588.236 1113.28 580.539C1095.67 567.85 1058.91 563.866 1042.74 563.46C1012.97 568.793 998.991 563.03 995.719 559.482C969.398 539.418 993.117 518.15 1008.27 510.025C1045.26 488.779 1101.05 518.161 1114.34 530.842C1124.98 540.987 1160.12 551.091 1176.36 554.875C1183.91 557.845 1206.34 559.842 1216.61 560.47L1181.39 532.55C1167.57 525.026 1121.86 459.883 1117.05 409.133C1113.19 368.533 1136.57 362.474 1148.75 364.52C1182.68 370.396 1196.5 426.191 1197.88 448.857C1198.98 466.99 1213.33 504.204 1220.36 520.545C1223.26 530.287 1229.98 550.273 1233.51 549.762C1235.54 549.466 1234.52 546.759 1232.69 544.163C1219.99 503.449 1247.78 458.557 1257.41 440.221C1267.72 425.905 1290.73 402.377 1309.4 384.408C1340.22 348.814 1337.01 348.661 1355.44 346.606C1381.73 348.89 1385.38 370.346 1385.35 386.095C1385.3 409.62 1362.7 431.724 1350.37 438.806C1317.38 453.575 1287.8 481.327 1275.76 494.488Z" fill="#F3A361"/>
<path d="M1280.92 460.132C1251.38 487.245 1242.75 523.371 1242.13 538.045C1242.07 541.098 1241.34 539.851 1240.98 538.846C1236.58 517.291 1244.98 500.855 1249.39 487.533C1253.8 474.212 1281.25 444.867 1283.55 443.265C1285.85 441.662 1309.32 419.869 1314.64 417.196C1319.96 414.522 1343.51 388.912 1344.48 386.869C1345.46 384.826 1358.47 369.623 1348.83 386.239C1347.84 387.955 1336.27 404.547 1335.3 406.59C1334.33 408.634 1317.86 426.241 1280.92 460.132Z" fill="#F3DEE5"/>
<path d="M1165.76 431.183C1164.68 427.28 1159.66 415.37 1157.91 412.031C1160.86 462.964 1176.97 486.624 1180.09 495.048C1183.22 503.473 1198.18 527.934 1210.45 538.202C1222.72 548.47 1221.03 545.545 1219.24 541.999C1217.82 539.162 1213.82 535.177 1208.47 524.54C1195.75 511.166 1183.45 482.672 1180.94 474.635C1176.2 459.47 1167.1 436.061 1165.76 431.183Z" fill="#F3DEE5"/>
<path d="M1095.54 545.993C1090.21 544.229 1059.87 536.159 1045.02 534.298C1050.61 533.487 1054.6 530.373 1068.62 530.875C1082.64 531.377 1105.49 539.301 1116.4 545.504C1128.84 552.577 1126.71 555.421 1178.3 570.131C1182.46 571.315 1209.55 575.743 1219.94 577.407C1219.24 579.538 1212.19 579.376 1208.76 579.028C1164.3 578.503 1114.19 552.165 1095.54 545.993Z" fill="#F3DEE5"/>
<path d="M290.558 424.367C288.429 429.352 284.444 449.766 282.968 460.261L290.558 453.964C297.284 448.874 323.026 442.629 335.465 440.11C363.294 436.331 388.594 443.888 393.021 467.818C397.449 491.747 368.354 500.564 356.969 506.861C345.585 513.158 307.635 515.047 297.516 515.047H279.174V554.091C280.439 552.831 286.763 549.557 301.943 546.534C320.918 542.755 362.029 542.126 388.594 550.312C415.158 558.499 415.158 580.539 403.773 595.023C392.389 609.507 364.559 607.618 353.807 607.618H312.695C296.883 612.026 307.635 629.658 307.635 638.474C307.635 647.29 325.978 666.812 328.508 675.628C330.532 682.681 322.604 687.803 318.388 689.482C311.304 692.001 306.139 684.724 301.943 680.666C296.883 677.14 278.942 674.648 270.319 671.499C256.172 672.759 238.273 668.072 232.37 666.812C201.378 660.2 199.059 647.29 201.378 638.474C209.474 622.353 233.002 622.101 243.754 623.99C255.139 623.361 270.319 632.807 270.319 629.658C270.319 626.509 257.037 615.174 250.079 611.396C244.513 608.373 199.269 595.443 177.343 589.355C143.948 582.302 136.021 560.388 136.232 550.312C136.232 512.529 181.138 524.493 195.053 528.272C206.185 531.294 232.159 544.225 243.754 550.312C243.248 540.237 195.053 512.948 171.018 500.564C139.647 481.924 134.756 455.013 136.232 443.888C137.286 436.854 144.201 422.881 163.429 423.261C186.494 421.748 224.149 460.532 232.37 464.039C239.453 467.062 235.321 462.78 232.37 460.261C220.226 449.178 212.552 414.501 210.232 398.548C207.196 377.893 210.001 350.636 219.087 339.983C240.339 317.816 260.6 320.409 270.319 325.499C300.447 338.672 301.311 376.507 301.943 381.545C302.575 386.583 292.687 419.381 290.558 424.367Z" fill="#4F7EDD"/>
<ellipse cx="254.275" cy="387.492" rx="3.16243" ry="3.77837" fill="#F3DEE5"/>
<ellipse cx="254.275" cy="360.414" rx="3.16243" ry="5.66756" fill="#F3DEE5"/>
<ellipse rx="3.79311" ry="5.51275" transform="matrix(0.943917 0.330183 -0.332763 0.943011 276.767 351.418)" fill="#F3DEE5"/>
<ellipse rx="3.79311" ry="5.51275" transform="matrix(0.943917 0.330183 -0.332762 0.943011 284.357 377.57)" fill="#F3DEE5"/>
<ellipse rx="3.79311" ry="5.51275" transform="matrix(0.943917 0.330183 -0.332763 0.943011 276.767 404.019)" fill="#F3DEE5"/>
<ellipse rx="3.7931" ry="5.51275" transform="matrix(0.943917 0.330184 -0.332762 0.943011 274.237 427.948)" fill="#F3DEE5"/>
<ellipse rx="3.7949" ry="5.51011" transform="matrix(0.999492 -0.0318722 0.0321517 0.999483 227.253 398.158)" fill="#F3DEE5"/>
<ellipse rx="3.7949" ry="5.51012" transform="matrix(0.999492 -0.0318722 0.0321517 0.999483 223.458 374.228)" fill="#F3DEE5"/>
<ellipse rx="3.79422" ry="5.51112" transform="matrix(0.978669 0.205443 -0.207169 0.978305 237.373 342.742)" fill="#F3DEE5"/>
<ellipse rx="3.79175" ry="5.51473" transform="matrix(0.899687 0.436535 -0.439629 0.89818 259.763 335.728)" fill="#F3DEE5"/>
<ellipse rx="3.79175" ry="5.51474" transform="matrix(0.899687 0.436535 -0.439629 0.89818 251.889 412.992)" fill="#F3DEE5"/>
<ellipse cx="257.438" cy="446.057" rx="3.79492" ry="5.66756" fill="#F3DEE5"/>
<ellipse rx="3.79175" ry="5.67233" transform="matrix(0.899605 -0.436704 0.439799 0.898096 231.719 433.285)" fill="#F3DEE5"/>
<ellipse rx="3.78837" ry="5.04658" transform="matrix(0.778407 -0.627759 0.631081 0.775717 166.168 440.385)" fill="#F3DEE5"/>
<ellipse rx="3.9362" ry="5.04658" transform="matrix(0.778408 -0.627759 0.631081 0.775717 150.874 451.813)" fill="#F3DEE5"/>
<ellipse rx="3.94102" ry="5.69712" transform="matrix(0.941069 -0.338216 0.340841 0.940121 166.507 467.543)" fill="#F3DEE5"/>
<ellipse rx="3.9346" ry="5.70645" transform="matrix(0.716427 -0.697662 0.700786 0.713372 190.887 457.281)" fill="#F3DEE5"/>
<ellipse rx="3.94002" ry="5.69857" transform="matrix(0.909802 -0.415042 0.418052 0.908423 184.976 484.985)" fill="#F3DEE5"/>
<ellipse rx="3.94" ry="5.6986" transform="matrix(0.909135 -0.416502 0.419517 0.907747 214.076 471.133)" fill="#F3DEE5"/>
<ellipse rx="3.94174" ry="5.69607" transform="matrix(0.962989 -0.269539 0.271732 0.962373 214.712 496.052)" fill="#F3DEE5"/>
<ellipse rx="4.52017" ry="6.98911" transform="matrix(0.983668 -0.179993 0.181521 0.983387 245.443 474.524)" fill="#F3DEE5"/>
<ellipse rx="3.5777" ry="5.43666" transform="matrix(0.962005 0.273031 -0.275247 0.961374 264.906 475.196)" fill="#F3DEE5"/>
<ellipse rx="3.57126" ry="5.4465" transform="matrix(0.716768 0.697312 -0.700438 0.713713 305.556 463.139)" fill="#F3DEE5"/>
<ellipse rx="3.57126" ry="5.4465" transform="matrix(0.716768 0.697312 -0.700438 0.713713 343.506 463.139)" fill="#F3DEE5"/>
<ellipse rx="3.57126" ry="5.44651" transform="matrix(0.716767 0.697312 -0.700437 0.713714 366.275 453.064)" fill="#F3DEE5"/>
<ellipse rx="3.57127" ry="5.44651" transform="matrix(0.716768 0.697312 -0.700438 0.713713 371.335 474.475)" fill="#F3DEE5"/>
<ellipse rx="3.57126" ry="5.44651" transform="matrix(0.716767 0.697312 -0.700437 0.713714 348.565 489.588)" fill="#F3DEE5"/>
<ellipse rx="3.57127" ry="5.44651" transform="matrix(0.716768 0.697312 -0.700438 0.713713 324.531 479.512)" fill="#F3DEE5"/>
<ellipse rx="3.57817" ry="5.43597" transform="matrix(0.976866 0.213854 -0.215646 0.976472 296.259 494.322)" fill="#F3DEE5"/>
<ellipse rx="3.57816" ry="5.43596" transform="matrix(0.976865 0.213855 -0.215646 0.976472 265.9 501.878)" fill="#F3DEE5"/>
<ellipse rx="3.57673" ry="5.43816" transform="matrix(0.929054 -0.369943 0.372739 0.927936 244.395 504.397)" fill="#F3DEE5"/>
<ellipse rx="3.57816" ry="5.43596" transform="matrix(0.976865 0.213855 -0.215645 0.976472 250.72 527.068)" fill="#F3DEE5"/>
<ellipse rx="3.85514" ry="5.10571" transform="matrix(0.786911 -0.617066 0.6417 0.766955 167.017 533.586)" fill="#F3DEE5"/>
<ellipse rx="4.00557" ry="5.10571" transform="matrix(0.786912 -0.617066 0.6417 0.766955 151.283 543.758)" fill="#F3DEE5"/>
<ellipse rx="3.97036" ry="5.82193" transform="matrix(0.588621 -0.808409 0.825999 0.563672 179.329 558.979)" fill="#F3DEE5"/>
<ellipse rx="3.96978" ry="5.82276" transform="matrix(0.584744 -0.811218 0.828628 0.559799 192.642 544.186)" fill="#F3DEE5"/>
<ellipse rx="3.62485" ry="5.52465" transform="matrix(0.726467 0.687201 -0.710377 0.703821 310.411 556.348)" fill="#F3DEE5"/>
<ellipse rx="3.57463" ry="5.60027" transform="matrix(0.303159 0.95294 -0.95831 0.28573 344.009 552.568)" fill="#F3DEE5"/>
<ellipse rx="3.62485" ry="5.52465" transform="matrix(0.726467 0.687201 -0.710377 0.703821 372.875 555.085)" fill="#F3DEE5"/>
<ellipse rx="4.85643" ry="5.52897" transform="matrix(0.709665 -0.704539 0.727159 0.686469 219.991 557.185)" fill="#F3DEE5"/>
<ellipse rx="3.86544" ry="5.52898" transform="matrix(0.709665 -0.704539 0.727158 0.68647 264.834 555.364)" fill="#F3DEE5"/>
<path d="M192.598 156.826C203.582 156.191 201.682 149.623 201.246 143.479C197.142 132.474 197.189 121.399 196.205 116.047C195.418 111.765 199.549 91.4544 201.713 81.8345C212.241 59.8414 195.555 40.7746 193.352 36.3377C191.589 32.7883 168.391 21.3275 157.013 16.0408C162.382 15.0541 190.501 19.5699 203.89 21.9511C212.337 22.6121 213.257 13.7741 212.661 9.27256C198.777 -58.726 150.464 -55.3508 147.212 -56.1664C142.848 -57.2609 130.304 -58.823 124.506 -58.9104L172.101 -64.1985C184.011 -65.834 192.044 -58.8718 194.571 -55.1863C204.584 -52.0464 209.191 -59.948 210.243 -64.2914C208.969 -82.5536 173.726 -104.435 164.263 -106.846C153.814 -109.509 102.835 -108.878 92.7675 -107.028C84.7138 -105.548 85.788 -108.512 87.3318 -110.179C92.4879 -124.406 127.46 -130.925 144.302 -132.407C164.168 -136.057 160.702 -145.104 156.485 -149.17C123.415 -189.435 15.4938 -161.302 -1.82276 -149.82C-15.676 -140.634 -21.9675 -123.523 -23.3815 -116.116C-35.9355 -121.003 -62.2072 -109.673 -73.7738 -103.397C-108.468 -89.8282 -115.349 -54.0266 -114.453 -37.8219C-120.887 -12.431 -112.906 23.4521 -108.3 44.739C-106.429 53.3868 -81.7976 102.119 -71.8995 110.675C-63.981 117.519 -59.5764 107.257 -58.3638 101.271C-56.9661 87.7337 -48.4639 65.7901 -44.3874 56.5105C-34.5958 40.3244 -25.4741 37.357 -22.1371 37.8965C-47.9052 81.9186 -35.28 110.119 -26.4768 123.769C-1.2491 162.886 27.9472 159.417 33.3164 158.431C37.6117 157.641 33.3038 138.375 33.1064 138.411C32.909 138.447 32.4604 135.25 32.4916 135.066C33.5573 128.783 38.3663 116.694 40.6377 111.435C45.5519 98.9122 51.5827 96.7434 53.9838 97.2244C46.9751 113.452 57.867 141.008 64.1891 152.757C69.7016 167.652 80.3836 169.148 84.6 173.215C87.9731 176.468 108.824 170.377 118.828 166.924C129.075 162.275 124.71 153.624 121.247 149.88C112.595 142.063 109.038 132.526 108.341 128.735C108.377 110.053 115.591 119.103 119.74 119.032C123.06 118.975 131.076 137.929 134.67 147.413C142.453 162.583 183.467 158.735 192.598 156.826Z" fill="#0A2A5C"/>
<path d="M98.7868 57.8659C100.988 60.7814 113.632 69.4322 119.679 73.3931C130.418 71.4197 89.0288 32.4536 66.9921 13.2172L70.3478 12.6005C78.4097 17.2057 119.345 6.13244 138.805 0.0201906C150.859 -3.85497 142.68 -7.83912 137.083 -9.3468C124.718 -19.2477 80.4766 -4.01638 59.9016 4.83691C54.5888 2.35491 36.2375 -29.5476 32.8152 -33.0687C30.0773 -35.8856 26.1277 -44.2897 24.4951 -48.1397C33.139 -46.4082 58.7679 -51.6714 70.5018 -54.5194C89.2939 -57.9728 98.6609 -66.1497 100.995 -69.8065C89.169 -85.4728 31.7555 -59.4094 23.3365 -55.5875L23.1426 -55.4995C15.4577 -52.0122 12.0917 -59.002 15.6268 -62.4183C19.1619 -65.8346 48.7539 -116.231 54.8506 -120.81C59.7279 -124.473 60.7013 -126.727 60.5784 -127.396C58.0824 -131.917 45.668 -126.731 39.7729 -123.572C32.6362 -120.877 32.4569 -118.078 20.2737 -101.314C10.5272 -87.9028 9.44651 -74.6548 10.1245 -69.7071C9.63264 -72.3834 -12.0846 -111.276 -17.8892 -116.434C-22.5329 -120.561 -22.9561 -117.578 -22.5873 -115.571C-15.0408 -85.8325 -3.05253 -65.9023 -1.5207 -61.3421C-0.295223 -57.694 -1.41313 -56.9813 -2.12525 -57.081C-16.7736 -58.2624 -31.8606 -52.7693 -37.573 -49.8751C-44.7097 -47.1803 -56.8262 -26.2786 -56.2114 -22.9333C-55.5967 -19.5879 -58.5733 -9.35756 -53.8753 -10.2209C-50.1169 -10.9116 -41.3387 -21.2859 -37.4194 -26.3867C-34.1528 -29.7536 -25.4088 -35.28 -21.4451 -37.6223C-14.9037 -38.271 -2.41732 -47.344 3.00822 -51.7994C13.2505 -23.2483 36.9563 5.8258 47.5289 16.794C19.2485 44.1244 18.1162 64.3908 15.5648 73.1596C13.5237 80.1747 18.0547 79.1576 20.5753 77.7722L35.566 61.184C44.0501 52.9849 50.4167 31.2494 52.5395 21.4065L82.1107 46.4055C77.3102 61.8127 81.9825 87.2374 92.9001 82.4644C103.818 77.6914 96.0357 54.2215 98.7868 57.8659Z" fill="#F3DEE5"/>
<path d="M815.514 -163.745C818.24 -160.4 825.001 -153.467 830.242 -152.485C836.793 -151.259 864.169 -137.068 867.62 -129.707C870.386 -124.812 873.637 -113.193 864.513 -105.878C860.772 -100.504 848.276 -92.791 828.217 -104.936C828.11 -103.071 828.655 -98.8009 831.692 -96.6445C835.487 -93.9491 845.452 -86.7574 848.722 -86.3766C851.991 -85.9958 887.78 -70.6269 889.955 -58.5764C892.904 -52.5994 896.519 -38.9099 887.386 -31.9674C883.033 -26.2665 869.02 -18.3592 847.796 -32.3367C841.634 -36.5228 828.813 -46.0929 826.826 -50.8841C825.577 -51.1621 823.48 -50.611 825.085 -46.1824C827.092 -40.6466 847.717 -17.4337 853.863 -13.868C860.009 -10.3023 893.616 10.7111 896.197 20.4228C898.64 24.8607 902.459 35.6269 898.185 43.1883C892.842 52.6401 884.647 59.8376 874.386 59.1727C865.544 59.4022 845.646 57.0317 836.784 45.7135C836.645 46.338 836.775 48.9733 838.409 54.5187C840.452 61.4505 846.193 103.21 824.503 110.758C815.623 115.49 794.385 120.108 780.471 100.726C774.996 93.1067 764.61 74.5018 766.868 61.0324C767.015 60.7181 766.846 60.1947 764.994 60.6153C762.68 61.1411 744.139 64.4163 735.521 55.3269C732.517 53.2318 726.276 47.1851 725.338 39.759C724.166 30.4763 730.403 19.6044 738.61 12.8722C746.817 6.13998 761.442 -4.48406 763.255 -6.39374C765.068 -8.30341 787.399 -27.0436 792.239 -37.8793C793.877 -40.5605 796.945 -46.7558 796.113 -50.0869C794.595 -48.8057 791.196 -45.7684 789.756 -43.8683C787.955 -41.4933 770.731 -23.3513 757.725 -22.0824C752.014 -20.8477 739.425 -20.3036 734.755 -28.0053C731.245 -31.6395 725.195 -41.0749 729.068 -49.7435C730.503 -54.282 736.399 -65.1141 748.51 -72.1339C755.109 -75.959 756.102 -76.6705 754.847 -76.1036C752.658 -74.9835 750.635 -73.9442 748.951 -73.0766C751.181 -74.2648 753.798 -75.6301 754.847 -76.1036C764.202 -80.8925 776.576 -87.1596 778.371 -87.81C781.139 -88.8131 788.856 -96.4639 790.524 -103.958C787.009 -101.849 779.606 -97.6208 778.117 -97.5821C776.256 -97.5338 757.739 -93.3279 753.762 -103.003C749.421 -108.789 743.204 -122.287 753.062 -129.993C756.994 -133.976 767.898 -143.23 780.058 -148.389C784.357 -150.208 793.405 -154.416 795.209 -156.698C797.463 -159.551 796.973 -160.469 799.264 -161.926C801.554 -163.382 808.927 -166.367 815.514 -163.745Z" fill="#F3DEE5"/>
<path d="M530.645 -105.377C531.102 -101.993 532.799 -94.5176 535.931 -91.6883C539.846 -88.1516 552.459 -67.2545 551.745 -60.8592C551.588 -56.4114 548.978 -47.2243 539.796 -46.0586C535.048 -43.9774 523.424 -43.9377 514.905 -60.429C514.062 -59.214 512.665 -56.1063 513.823 -53.3955C515.27 -50.0069 519.024 -41.0323 521.073 -39.4235C523.123 -37.8147 540.927 -12.6441 537.413 -3.61035C536.932 1.64346 533.713 12.3787 524.678 13.2891C519.382 15.3374 506.654 14.8816 498.106 -3.32832C495.677 -8.70172 490.98 -20.4624 491.619 -24.5181C490.891 -25.2221 489.248 -25.7169 488.5 -22.064C487.566 -17.4977 491.892 6.69885 494.566 11.6468C497.241 16.5947 511.238 44.6735 508.965 52.2959C508.779 56.3018 506.906 65.1478 500.894 68.4848C493.38 72.6561 484.873 74.1265 478.221 69.4351C472.158 65.9346 459.706 56.1077 458.404 44.8039C458.052 45.1679 457.05 47.0008 455.861 51.4196C454.374 56.9432 440.983 87.5051 423.222 83.6326C415.271 83.1554 399.026 77.492 397.647 58.6558C397.101 51.2494 397.783 34.3968 404.876 26.2383C405.105 26.087 405.207 25.6639 403.784 25.1822C402.004 24.5802 388.134 19.1253 386.075 9.42696C384.914 6.77097 383.201 0.108855 385.638 -5.29163C388.684 -12.0422 397.389 -16.8024 405.712 -17.9536C414.036 -19.1049 428.3 -20.2296 430.314 -20.7691C432.327 -21.3086 455.149 -24.7262 462.896 -30.039C465.11 -31.1718 469.742 -34.0853 470.558 -36.6777C469.003 -36.4409 465.454 -35.7955 463.696 -35.1086C461.498 -34.25 442.371 -29.1249 433.068 -33.6453C428.702 -35.173 419.979 -40.0108 420.011 -47.1404C419.144 -51.0443 418.961 -59.9147 425.16 -64.165C428.004 -66.6356 436.463 -71.5096 447.54 -71.2409C453.576 -71.0945 454.541 -71.1642 453.459 -71.3006C451.519 -71.4493 449.723 -71.5842 448.228 -71.6949C450.224 -71.575 452.555 -71.4146 453.459 -71.3006C461.754 -70.6652 472.698 -69.7798 474.178 -69.4769C476.461 -69.0097 484.833 -70.9834 489.058 -75.3522C485.813 -75.3819 479.068 -75.5886 478.047 -76.1782C476.77 -76.9151 462.532 -81.7317 463.848 -89.9068C463.31 -95.607 464.693 -107.289 474.534 -108.415C478.835 -109.478 490.022 -111.216 500.362 -109.671C504.016 -109.122 511.864 -108.221 514.025 -109.016C516.726 -110.01 516.775 -110.832 518.923 -110.868C521.072 -110.904 527.283 -109.871 530.645 -105.377Z" fill="#4F7EDD"/>
<path d="M837.219 559.657C814.504 562.535 791.628 564.351 768.704 565.207C771.829 564.2 774.962 563.216 778.079 562.184C799.623 555.048 822.149 547.975 839.351 534.102C842.817 531.306 838.383 526.513 834.382 528.489C805.502 542.758 774.485 553.431 742.313 560.297C763.256 542.895 780.102 521.465 796.175 500.693C798.741 497.377 792.636 493.16 789.734 496.363C776.106 511.414 761.427 525.661 746.26 539.517C757.531 522.803 767.028 505.078 776.314 487.544C778.487 483.444 771.852 479.85 769.233 483.937C753.68 508.215 736.434 531.657 717.596 554.092C731.438 521.797 742.007 488.493 748.94 454.511C749.86 449.999 742.808 448.234 741.032 452.61C731.385 476.397 722.571 500.431 714.586 524.675C717.594 501.503 720.602 478.331 723.612 455.16C724.205 450.583 716.04 450.659 715.411 455.16C712.497 476.029 709.169 496.853 705.473 517.628C705.862 495.209 704.85 472.774 702.331 450.441C701.824 445.955 694.126 445.752 694.13 450.441C694.159 479.175 694.189 507.91 694.218 536.644C689.169 513.399 679.936 490.756 670.717 468.555C668.947 464.292 661.227 466.004 662.809 470.454C672.33 497.23 680.885 524.257 688.554 551.478C688.768 553.055 688.963 554.631 689.128 556.215C674.006 532.081 658.885 507.949 643.764 483.815C641.229 479.77 634.227 483.358 636.683 487.423C648.077 506.278 659.473 525.132 670.867 543.986C655.944 530.063 639.966 517.01 622.923 505.004C618.85 502.157 613.013 507.162 617.125 510.057C633.299 521.365 648.185 534.035 661.453 547.927C663.432 549.999 665.359 552.106 667.259 554.229C648.417 546.091 629.156 538.695 609.517 532.104C605.804 530.857 602.332 535.908 605.529 538.075C624.99 551.276 646.69 561.634 669.69 568.89C671.368 569.645 673.044 570.402 674.731 571.141C651.028 569.296 627.326 567.448 603.623 565.601C599.07 565.247 597.958 571.984 602.532 572.619C613.559 574.151 624.609 575.678 635.683 577.076C623.583 579.258 611.625 582.065 599.907 585.53C594.84 587.028 596.929 593.171 602.088 592.421C627.415 588.735 652.922 586.057 678.533 584.429C682.19 584.196 685.892 583.938 689.599 583.72C684.092 599.516 677.8 615.088 670.684 630.368C660.162 649.636 649.643 668.904 639.121 688.172C636.885 692.269 643.62 695.861 646.202 691.78C658.227 672.762 668.921 653.124 678.29 633.015C686.383 618.193 694.476 603.372 702.569 588.55C726.302 603.901 751.08 617.973 775.872 631.986C780.348 634.517 784.278 628.423 780.012 625.816C760.077 613.634 740.14 601.454 720.205 589.273C744.808 595.085 769.41 600.898 794.013 606.71C799.132 607.921 801.204 601.213 796.194 599.819C783.56 596.308 770.95 592.71 758.322 589.16C779.085 590.964 799.845 592.769 820.607 594.573C825.179 594.97 826.226 588.315 821.697 587.554C798.664 583.683 775.628 579.811 752.595 575.94C781.706 574.256 810.698 571.131 839.406 566.544C844.652 565.709 842.332 559.009 837.219 559.657Z" fill="#007C39"/>
</g>
<defs>
<clipPath id="clip0_14_87">
<rect width="1280" height="557" fill="white"/>
</clipPath>
</defs>
</svg>
