<svg width="1086" height="390" viewBox="0 0 1086 390" fill="none" xmlns="http://www.w3.org/2000/svg">
<g clip-path="url(#clip0_37_2)">
<rect width="1086" height="390" fill="white"/>
<ellipse cx="120.5" cy="183" rx="213.5" ry="140" fill="#C4C4C4"/>
<rect x="-26" y="98" width="389" height="169" fill="#92967D"/>
<path d="M52.8358 157.368C53.1958 156.648 53.3758 155.952 53.3758 155.28C53.3758 154.608 53.3398 154.092 53.2678 153.732C53.1958 153.348 53.0758 153.012 52.9078 152.724C52.5478 152.1 52.0078 151.788 51.2878 151.788C50.3998 151.788 49.5958 152.112 48.8758 152.76C48.1078 153.432 47.7238 154.296 47.7238 155.352C47.7238 156.024 47.9518 156.624 48.4078 157.152C48.8878 157.656 49.4878 158.148 50.2078 158.628C50.9278 159.108 51.6958 159.588 52.5118 160.068C53.3278 160.548 54.0958 161.076 54.8158 161.652C56.4718 162.972 57.2998 164.52 57.2998 166.296C57.2998 167.496 56.9758 168.612 56.3278 169.644C55.7038 170.652 54.8638 171.528 53.8078 172.272C51.5038 173.904 48.8278 174.72 45.7798 174.72C43.3078 174.72 41.4358 174.324 40.1638 173.532C38.8918 172.716 38.2558 171.696 38.2558 170.472C38.2558 168.288 39.1078 166.92 40.8118 166.368C41.2918 166.2 41.8918 166.116 42.6118 166.116C43.3558 166.116 44.1478 166.272 44.9878 166.584C44.6038 167.568 44.4118 168.504 44.4118 169.392C44.4118 171.312 45.0958 172.272 46.4638 172.272C47.3518 172.272 48.1558 171.948 48.8758 171.3C49.6198 170.652 49.9918 169.968 49.9918 169.248C49.9918 168.504 49.7518 167.868 49.2718 167.34C48.8158 166.812 48.2398 166.344 47.5438 165.936C46.8478 165.504 46.0918 165.084 45.2758 164.676C44.4838 164.268 43.7398 163.776 43.0438 163.2C41.4118 161.88 40.5958 160.164 40.5958 158.052C40.5958 156.684 40.9318 155.472 41.6038 154.416C42.2758 153.336 43.1518 152.436 44.2318 151.716C46.3918 150.252 48.7918 149.52 51.4318 149.52C54.0958 149.52 56.0638 149.916 57.3358 150.708C58.6318 151.5 59.2798 152.568 59.2798 153.912C59.2798 155.088 58.8238 156.048 57.9118 156.792C57.1198 157.416 56.2438 157.728 55.2838 157.728C54.3238 157.728 53.5078 157.608 52.8358 157.368ZM67.9502 172.02C67.2062 173.82 65.6462 174.72 63.2702 174.72C62.0462 174.72 61.0502 174.3 60.2822 173.46C59.6342 172.716 59.3102 171.972 59.3102 171.228C59.3102 169.284 59.7542 166.416 60.6422 162.624L61.9742 155.64L69.2822 154.92L67.0862 166.296C66.6782 168.072 66.4742 169.272 66.4742 169.896C66.4742 171.264 66.9662 171.972 67.9502 172.02ZM62.6222 150.636C62.6222 149.7 63.0062 148.98 63.7742 148.476C64.5662 147.972 65.5262 147.72 66.6542 147.72C67.7822 147.72 68.6822 147.972 69.3542 148.476C70.0502 148.98 70.3982 149.7 70.3982 150.636C70.3982 151.572 70.0142 152.28 69.2462 152.76C68.5022 153.24 67.5662 153.48 66.4382 153.48C65.3102 153.48 64.3862 153.24 63.6662 152.76C62.9702 152.28 62.6222 151.572 62.6222 150.636ZM72.8532 158.952C73.6692 157.8 74.6892 156.84 75.9132 156.072C77.1612 155.304 78.5412 154.92 80.0532 154.92C81.5652 154.92 82.6812 155.16 83.4012 155.64L90.4572 154.92L88.0092 168.744C87.1692 173.448 85.8612 176.724 84.0852 178.572C82.3812 180.324 79.8732 181.2 76.5612 181.2C74.0412 181.2 72.0612 180.804 70.6212 180.012C69.1812 179.22 68.4612 178.164 68.4612 176.844C68.4612 175.86 68.8332 175.08 69.5772 174.504C70.3212 173.952 71.2692 173.676 72.4212 173.676C73.4292 173.676 74.3172 173.904 75.0852 174.36C75.5412 174.6 75.8772 174.888 76.0932 175.224C75.5412 175.704 75.2652 176.34 75.2652 177.132C75.2652 178.164 75.7452 178.68 76.7052 178.68C78.3132 178.68 79.5732 176.784 80.4852 172.992C80.7492 171.96 80.9892 170.928 81.2052 169.896C80.1252 171.216 78.3612 171.876 75.9132 171.876C74.2092 171.876 72.8652 171.468 71.8812 170.652C70.8972 169.836 70.4052 168.468 70.4052 166.548C70.4052 165.348 70.6092 164.076 71.0172 162.732C71.4252 161.364 72.0372 160.104 72.8532 158.952ZM77.5332 166.656C77.5332 168.288 77.9532 169.104 78.7932 169.104C79.3692 169.104 79.9332 168.792 80.4852 168.168C80.9172 167.664 81.2172 167.04 81.3852 166.296L83.2212 157.044C83.1012 157.02 82.9812 156.984 82.8612 156.936C82.6212 156.84 82.3452 156.792 82.0332 156.792C80.5692 156.792 79.4052 157.992 78.5412 160.392C77.8692 162.264 77.5332 164.352 77.5332 166.656ZM106.356 174.72C103.452 174.72 102 173.592 102 171.336C102.024 170.712 102.132 169.872 102.324 168.816L102.972 165.504C103.62 162.384 103.944 160.476 103.944 159.78C103.944 158.388 103.536 157.692 102.72 157.692C101.352 157.692 100.308 159.48 99.588 163.056L97.464 174L90.228 174.72L93.972 155.604L99.876 154.92L99.3 158.448C100.428 156.096 102.72 154.92 106.176 154.92C107.856 154.92 109.044 155.28 109.74 156C110.46 156.696 110.82 157.836 110.82 159.42C110.82 160.908 110.436 163.392 109.668 166.872C109.308 168.432 109.128 169.512 109.128 170.112C109.128 170.688 109.284 171.144 109.596 171.48C109.932 171.816 110.34 172.008 110.82 172.056C110.58 172.872 110.04 173.52 109.2 174C108.384 174.48 107.436 174.72 106.356 174.72ZM120.36 168.672C120.36 167.736 120.48 166.668 120.72 165.468L123.636 150.24H131.592L128.712 165.576C128.496 166.704 128.388 167.688 128.388 168.528C128.388 169.344 128.556 169.968 128.892 170.4C129.252 170.832 129.756 171.048 130.404 171.048C131.052 171.048 131.58 170.964 131.988 170.796C132.396 170.628 132.768 170.34 133.104 169.932C133.752 169.116 134.28 167.664 134.688 165.576L137.604 150.24H143.04L140.16 165.54C139.488 168.948 138.228 171.336 136.38 172.704C134.58 174.048 131.904 174.72 128.352 174.72C125.688 174.72 123.648 174.144 122.232 172.992C120.984 171.984 120.36 170.544 120.36 168.672ZM159.814 171.552C158.806 172.56 157.606 173.34 156.214 173.892C154.846 174.444 153.478 174.72 152.11 174.72C150.742 174.72 149.818 174.6 149.338 174.36L148.222 180.48L140.914 181.2L145.882 155.64L151.75 155.028L151.282 157.512C152.29 155.808 153.838 154.956 155.926 154.956C158.278 154.956 160.078 155.712 161.326 157.224C162.43 158.592 162.982 160.32 162.982 162.408C162.982 164.496 162.706 166.284 162.154 167.772C161.602 169.26 160.822 170.52 159.814 171.552ZM149.77 171.984C150.274 172.416 150.838 172.632 151.462 172.632C152.086 172.632 152.578 172.512 152.938 172.272C153.298 172.032 153.61 171.672 153.874 171.192C154.594 169.896 155.242 167.28 155.818 163.344C155.986 162.192 156.07 161.052 156.07 159.924C156.07 158.796 155.938 158.052 155.674 157.692C155.434 157.332 155.074 157.152 154.594 157.152C153.13 157.152 152.158 158.58 151.678 161.436L149.77 171.984ZM187.51 154.92C185.566 154.92 183.886 154.596 182.47 153.948L181.318 159.78H188.266C188.266 161.052 187.942 162.096 187.294 162.912C186.67 163.704 185.782 164.1 184.63 164.1C183.382 164.1 182.182 163.872 181.03 163.416C180.79 163.32 180.658 163.26 180.634 163.236L178.582 174H170.734L175.306 150.24H191.362C191.362 151.704 191.014 152.856 190.318 153.696C189.646 154.512 188.71 154.92 187.51 154.92ZM197.347 174.72C192.067 174.72 189.427 172.236 189.427 167.268C189.427 163.74 190.399 160.836 192.343 158.556C194.407 156.132 197.227 154.92 200.803 154.92C203.395 154.92 205.351 155.52 206.671 156.72C207.991 157.92 208.651 159.78 208.651 162.3C208.651 166.14 207.619 169.176 205.555 171.408C203.539 173.616 200.803 174.72 197.347 174.72ZM198.283 159.06C197.995 159.708 197.731 160.524 197.491 161.508C197.275 162.468 197.023 163.716 196.735 165.252C196.447 166.788 196.303 168.504 196.303 170.4C196.303 171.024 196.399 171.54 196.591 171.948C196.807 172.356 197.191 172.56 197.743 172.56C198.295 172.56 198.739 172.428 199.075 172.164C199.435 171.9 199.747 171.456 200.011 170.832C200.491 169.728 200.923 168.156 201.307 166.116C201.691 164.052 201.895 162.576 201.919 161.688C201.967 160.8 201.991 160.032 201.991 159.384C201.991 158.712 201.895 158.16 201.703 157.728C201.511 157.296 201.139 157.08 200.587 157.08C200.059 157.08 199.615 157.248 199.255 157.584C198.895 157.92 198.571 158.412 198.283 159.06ZM221.317 163.884C222.181 162.348 222.613 160.8 222.613 159.24C222.613 158.208 222.241 157.692 221.497 157.692C220.921 157.692 220.333 158.184 219.733 159.168C219.109 160.152 218.701 161.28 218.509 162.552L216.637 174L209.185 174.72L212.857 155.64L218.797 154.92L218.149 158.556C219.325 156.132 221.233 154.92 223.873 154.92C225.265 154.92 226.333 155.28 227.077 156C227.845 156.72 228.229 157.824 228.229 159.312C228.229 160.776 227.737 161.976 226.753 162.912C225.793 163.848 224.485 164.316 222.829 164.316C222.109 164.316 221.605 164.172 221.317 163.884ZM250.172 168.456C250.628 169.032 250.856 169.788 250.856 170.724C250.856 172.02 250.376 173.016 249.416 173.712C248.456 174.384 247.22 174.72 245.708 174.72C244.844 174.72 243.752 174.624 242.432 174.432C239.84 174.024 238.148 173.82 237.356 173.82C236.564 173.82 236.012 173.844 235.7 173.892C235.388 173.916 234.98 173.952 234.476 174L238.904 150.24H254.42C254.42 151.704 254.06 152.82 253.34 153.588C252.644 154.356 251.6 154.74 250.208 154.74C248.816 154.74 247.412 154.416 245.996 153.768L244.88 160.068H251.288C251.288 161.34 250.976 162.336 250.352 163.056C249.728 163.752 248.888 164.1 247.832 164.1C246.8 164.1 245.96 163.98 245.312 163.74C244.664 163.5 244.304 163.344 244.232 163.272L242.936 170.076C243.512 170.148 244.34 170.184 245.42 170.184C247.268 170.184 248.852 169.608 250.172 168.456ZM279.371 174.72C276.467 174.72 275.015 173.592 275.015 171.336C275.015 170.352 275.219 168.912 275.627 167.016C276.059 165.096 276.347 163.752 276.491 162.984C276.827 161.232 276.995 160.08 276.995 159.528C276.995 158.304 276.539 157.692 275.627 157.692C275.027 157.692 274.439 158.112 273.863 158.952C273.287 159.768 272.867 161.004 272.603 162.66L270.371 174L263.351 174.72L265.295 164.928C265.511 163.848 265.715 162.696 265.907 161.472C266.099 160.248 266.195 159.54 266.195 159.348C266.195 158.244 265.787 157.692 264.971 157.692C264.419 157.692 263.843 158.1 263.243 158.916C262.643 159.732 262.175 160.98 261.839 162.66L259.643 174L252.551 174.72L256.331 155.64L262.199 154.92L261.587 158.556C262.211 157.26 263.099 156.336 264.251 155.784C265.403 155.208 266.879 154.92 268.679 154.92C269.711 154.92 270.563 155.172 271.235 155.676C271.907 156.18 272.351 156.84 272.567 157.656C272.975 156.816 273.695 156.156 274.727 155.676C275.783 155.172 276.947 154.92 278.219 154.92C279.515 154.92 280.475 155.064 281.099 155.352C281.747 155.616 282.263 155.976 282.647 156.432C283.295 157.272 283.619 158.46 283.619 159.996C283.619 161.508 283.295 163.836 282.647 166.98C282.311 168.516 282.143 169.572 282.143 170.148C282.143 170.7 282.299 171.144 282.611 171.48C282.947 171.816 283.355 172.008 283.835 172.056C283.595 172.872 283.055 173.52 282.215 174C281.399 174.48 280.451 174.72 279.371 174.72ZM287.432 172.92C286.88 172.296 286.472 171.492 286.208 170.508C285.968 169.524 285.848 168.228 285.848 166.62C285.848 165.012 286.124 163.476 286.676 162.012C287.228 160.548 288.008 159.288 289.016 158.232C291.08 156.024 293.816 154.92 297.224 154.92C298.448 154.92 299.504 155.124 300.392 155.532L306.548 154.92L303.884 168.96C303.812 169.248 303.776 169.656 303.776 170.184C303.776 170.712 303.932 171.144 304.244 171.48C304.58 171.816 304.988 172.008 305.468 172.056C305.228 172.872 304.664 173.52 303.776 174C302.912 174.48 301.988 174.72 301.004 174.72C300.02 174.72 299.192 174.528 298.52 174.144C297.872 173.784 297.452 173.292 297.26 172.668C296.876 173.268 296.276 173.76 295.46 174.144C294.644 174.528 293.684 174.72 292.58 174.72C291.5 174.72 290.516 174.576 289.628 174.288C288.74 174 288.008 173.544 287.432 172.92ZM295.028 158.304C294.764 158.736 294.512 159.324 294.272 160.068C294.032 160.788 293.708 162.132 293.3 164.1C292.916 166.044 292.724 167.712 292.724 169.104C292.724 170.496 292.832 171.396 293.048 171.804C293.264 172.212 293.564 172.416 293.948 172.416C294.716 172.416 295.376 172.056 295.928 171.336C296.504 170.592 296.9 169.572 297.116 168.276L299.024 157.728C298.52 157.296 297.968 157.08 297.368 157.08C296.792 157.08 296.324 157.176 295.964 157.368C295.628 157.56 295.316 157.872 295.028 158.304ZM316.409 172.02C315.665 173.82 314.105 174.72 311.729 174.72C310.505 174.72 309.509 174.3 308.741 173.46C308.093 172.716 307.769 171.972 307.769 171.228C307.769 169.284 308.213 166.416 309.101 162.624L310.433 155.64L317.741 154.92L315.545 166.296C315.137 168.072 314.933 169.272 314.933 169.896C314.933 171.264 315.425 171.972 316.409 172.02ZM311.081 150.636C311.081 149.7 311.465 148.98 312.233 148.476C313.025 147.972 313.985 147.72 315.113 147.72C316.241 147.72 317.141 147.972 317.813 148.476C318.509 148.98 318.857 149.7 318.857 150.636C318.857 151.572 318.473 152.28 317.705 152.76C316.961 153.24 316.025 153.48 314.897 153.48C313.769 153.48 312.845 153.24 312.125 152.76C311.429 152.28 311.081 151.572 311.081 150.636ZM327.36 172.02C326.616 173.82 325.056 174.72 322.68 174.72C321.48 174.72 320.496 174.3 319.728 173.46C319.104 172.764 318.792 172.02 318.792 171.228C318.792 169.428 319.212 166.56 320.052 162.624L322.68 148.8L329.988 148.08L326.496 166.296C326.088 168.072 325.884 169.272 325.884 169.896C325.884 171.264 326.376 171.972 327.36 172.02ZM110.835 203.76C109.107 207.552 108.243 211.644 108.243 216.036C107.595 216.492 106.791 216.72 105.831 216.72C104.895 216.72 104.127 216.492 103.527 216.036C102.927 215.604 102.567 215.16 102.447 214.704C101.847 215.328 101.055 215.82 100.071 216.18C99.1115 216.54 98.1155 216.72 97.0835 216.72C96.0515 216.72 95.0795 216.552 94.1675 216.216C93.2795 215.88 92.4875 215.34 91.7915 214.596C90.2555 212.964 89.4875 210.6 89.4875 207.504C89.4875 202.704 90.7715 198.864 93.3395 195.984C95.9795 193.008 99.6395 191.52 104.319 191.52C107.559 191.52 109.755 192.36 110.907 194.04C111.267 194.568 111.447 195.156 111.447 195.804C111.447 196.428 111.303 197.016 111.015 197.568C110.751 198.096 110.403 198.576 109.971 199.008C108.939 199.968 107.787 200.448 106.515 200.448C106.011 200.448 105.519 200.364 105.039 200.196C105.135 199.476 105.183 198.696 105.183 197.856C105.183 197.016 105.147 196.404 105.075 196.02C105.027 195.636 104.931 195.288 104.787 194.976C104.475 194.328 103.971 194.004 103.275 194.004C102.603 194.004 101.883 194.376 101.115 195.12C100.371 195.84 99.6995 196.8 99.0995 198C97.7795 200.688 97.1195 203.652 97.1195 206.892C97.1195 208.38 97.4075 209.652 97.9835 210.708C98.6075 211.86 99.4715 212.436 100.575 212.436C100.959 212.436 101.319 212.34 101.655 212.148C102.015 211.956 102.267 211.788 102.411 211.644L103.563 204.408L110.835 203.76ZM126.468 209.916C127.068 210.324 127.368 210.984 127.368 211.896C127.368 212.784 127.14 213.516 126.684 214.092C126.228 214.668 125.628 215.148 124.884 215.532C123.348 216.324 121.752 216.72 120.096 216.72C118.44 216.72 117.12 216.54 116.136 216.18C115.176 215.82 114.372 215.304 113.724 214.632C112.452 213.36 111.816 211.56 111.816 209.232C111.816 205.608 112.8 202.692 114.768 200.484C116.88 198.108 119.772 196.92 123.444 196.92C125.724 196.92 127.428 197.4 128.556 198.36C129.396 199.08 129.816 200.028 129.816 201.204C129.816 205.428 126.168 207.54 118.872 207.54C118.776 208.164 118.728 208.74 118.728 209.268C118.728 210.372 118.968 211.14 119.448 211.572C119.952 211.98 120.66 212.184 121.572 212.184C122.484 212.184 123.42 211.98 124.38 211.572C125.364 211.14 126.06 210.588 126.468 209.916ZM119.124 205.992C120.828 205.992 122.172 205.464 123.156 204.408C124.14 203.4 124.632 202.092 124.632 200.484C124.632 199.932 124.524 199.512 124.308 199.224C124.116 198.912 123.816 198.756 123.408 198.756C123 198.756 122.616 198.84 122.256 199.008C121.92 199.152 121.572 199.488 121.212 200.016C120.324 201.216 119.628 203.208 119.124 205.992ZM130.905 212.4C130.905 211.752 131.073 210.612 131.409 208.98L133.317 199.26H131.193L131.337 198.18C134.217 197.316 137.049 195.828 139.833 193.716H141.561L140.697 197.64H143.505L143.181 199.26H140.409L138.573 208.98C138.261 210.468 138.105 211.464 138.105 211.968C138.105 213.12 138.609 213.816 139.617 214.056C139.377 214.872 138.825 215.52 137.961 216C137.097 216.48 136.053 216.72 134.829 216.72C133.605 216.72 132.645 216.336 131.949 215.568C131.253 214.8 130.905 213.744 130.905 212.4ZM153.67 216.396C152.926 216.372 152.158 216.36 151.366 216.36C150.598 216.36 149.83 216.408 149.062 216.504C148.966 216.12 148.918 215.7 148.918 215.244C148.918 214.284 149.182 213.516 149.71 212.94C150.262 212.364 150.958 212.076 151.798 212.076H153.742L156.766 198.468C156.022 199.212 154.882 199.584 153.346 199.584C152.578 199.584 151.894 199.224 151.294 198.504C150.694 197.832 150.346 197.016 150.25 196.056C153.802 195.432 158.23 193.932 163.534 191.556L164.686 192.924L161.194 212.076H162.094C163.534 212.076 164.626 211.944 165.37 211.68C165.682 212.208 165.838 212.904 165.838 213.768C165.838 214.632 165.514 215.328 164.866 215.856C164.242 216.36 163.402 216.612 162.346 216.612C160.21 216.612 158.086 216.564 155.974 216.468L153.67 216.396ZM173.199 201.204C174.591 201.084 175.719 201.024 176.583 201.024C177.447 201.024 178.335 201.18 179.247 201.492C180.159 201.804 180.951 202.224 181.623 202.752C183.111 203.928 183.855 205.272 183.855 206.784C183.855 208.272 183.579 209.616 183.027 210.816C182.499 212.016 181.767 213.048 180.831 213.912C178.839 215.784 176.331 216.72 173.307 216.72C171.123 216.72 169.455 216.372 168.303 215.676C167.151 214.98 166.575 213.972 166.575 212.652C166.575 211.308 166.995 210.276 167.835 209.556C168.843 211.26 170.415 212.112 172.551 212.112C173.847 212.112 174.855 211.812 175.575 211.212C176.295 210.612 176.655 209.736 176.655 208.584C176.655 206.28 174.987 205.128 171.651 205.128C170.379 205.128 169.335 205.176 168.519 205.272L171.903 192.24H180.363C182.259 192.24 183.507 191.82 184.107 190.98C184.731 191.532 185.043 192.42 185.043 193.644C185.043 194.796 184.587 195.78 183.675 196.596C182.763 197.412 181.659 197.82 180.363 197.82H174.207L173.199 201.204ZM191.759 205.704C190.007 205.704 188.699 205.224 187.835 204.264C186.995 203.304 186.575 202.128 186.575 200.736C186.575 199.344 186.731 198.108 187.043 197.028C187.379 195.948 187.883 195 188.555 194.184C190.043 192.432 192.143 191.556 194.855 191.556C198.575 191.556 200.435 193.464 200.435 197.28C200.435 199.872 199.655 201.936 198.095 203.472C196.559 204.96 194.447 205.704 191.759 205.704ZM189.347 215.676L211.019 192.816C211.931 191.904 213.083 191.448 214.475 191.448C215.675 191.448 216.455 191.904 216.815 192.816L195.179 215.496C194.339 216.384 193.295 216.828 192.047 216.828C191.447 216.828 190.907 216.72 190.427 216.504C189.947 216.288 189.587 216.012 189.347 215.676ZM192.299 203.868C193.283 203.868 194.123 203.064 194.819 201.456C195.467 199.92 195.791 198.048 195.791 195.84C195.791 194.208 195.431 193.392 194.711 193.392C193.775 193.392 192.971 194.304 192.299 196.128C191.651 197.808 191.327 199.524 191.327 201.276C191.327 203.004 191.651 203.868 192.299 203.868ZM211.487 216.72C209.735 216.72 208.427 216.24 207.563 215.28C206.723 214.32 206.303 213.144 206.303 211.752C206.303 210.36 206.459 209.124 206.771 208.044C207.107 206.964 207.611 206.016 208.283 205.2C209.771 203.448 211.871 202.572 214.583 202.572C217.247 202.572 218.975 203.592 219.767 205.632C220.055 206.352 220.199 207.3 220.199 208.476C220.199 209.652 219.995 210.768 219.587 211.824C219.179 212.856 218.603 213.744 217.859 214.488C216.299 215.976 214.175 216.72 211.487 216.72ZM212.063 214.884C212.567 214.884 213.035 214.668 213.467 214.236C213.899 213.78 214.259 213.192 214.547 212.472C215.195 210.912 215.519 209.04 215.519 206.856C215.519 205.224 215.159 204.408 214.439 204.408C213.551 204.408 212.747 205.32 212.027 207.144C211.379 208.8 211.055 210.504 211.055 212.256C211.055 214.008 211.391 214.884 212.063 214.884ZM229.17 207.216C229.17 202.68 230.346 198.984 232.698 196.128C235.194 193.032 238.614 191.484 242.958 191.484C246.102 191.484 248.466 192.252 250.05 193.788C251.634 195.3 252.426 197.664 252.426 200.88C252.426 205.776 251.178 209.652 248.682 212.508C246.21 215.316 242.898 216.72 238.746 216.72C235.506 216.72 233.094 215.916 231.51 214.308C229.95 212.676 229.17 210.312 229.17 207.216ZM238.638 199.764C237.558 204.084 237.018 207.948 237.018 211.356C237.018 212.172 237.15 212.844 237.414 213.372C237.702 213.9 238.206 214.164 238.926 214.164C239.67 214.164 240.27 213.996 240.726 213.66C241.182 213.3 241.59 212.724 241.95 211.932C242.526 210.636 243.078 208.62 243.606 205.884C244.158 203.124 244.458 201.18 244.506 200.052C244.554 198.9 244.578 197.892 244.578 197.028C244.578 196.164 244.446 195.456 244.182 194.904C243.918 194.352 243.426 194.076 242.706 194.076C242.01 194.076 241.422 194.292 240.942 194.724C240.054 195.54 239.286 197.22 238.638 199.764ZM267.508 195.12C267.844 194.544 268.012 193.944 268.012 193.32C268.012 192.216 267.676 191.664 267.004 191.664C265.972 191.664 265.24 192.72 264.808 194.832L264.268 197.64H267.544L267.328 199.26H263.944L260.704 216L253.432 216.72L256.888 199.26H254.332L254.656 197.64H257.176L257.932 194.796C258.364 193.044 259.504 191.76 261.352 190.944C262.696 190.368 264.496 190.08 266.752 190.08C269.008 190.08 270.64 190.368 271.648 190.944C272.656 191.52 273.16 192.192 273.16 192.96C273.16 193.728 272.86 194.352 272.26 194.832C271.66 195.312 271.024 195.552 270.352 195.552C269.032 195.552 268.084 195.408 267.508 195.12ZM280.534 195.12C280.87 194.544 281.038 193.944 281.038 193.32C281.038 192.216 280.702 191.664 280.03 191.664C278.998 191.664 278.266 192.72 277.834 194.832L277.294 197.64H280.57L280.354 199.26H276.97L273.73 216L266.458 216.72L269.914 199.26H267.358L267.682 197.64H270.202L270.958 194.796C271.39 193.044 272.53 191.76 274.378 190.944C275.722 190.368 277.522 190.08 279.778 190.08C282.034 190.08 283.666 190.368 284.674 190.944C285.682 191.52 286.186 192.192 286.186 192.96C286.186 193.728 285.886 194.352 285.286 194.832C284.686 195.312 284.05 195.552 283.378 195.552C282.058 195.552 281.11 195.408 280.534 195.12Z" fill="white"/>
<rect x="982" y="43" width="142" height="252" fill="#C8C6A7"/>
<ellipse cx="974.5" cy="258.5" rx="78.5" ry="75.5" fill="#C4C4C4"/>
</g>
<defs>
<clipPath id="clip0_37_2">
<rect width="1086" height="390" fill="white"/>
</clipPath>
</defs>
</svg>
